<svg width="393" height="57" viewBox="0 0 393 57" fill="none" xmlns="http://www.w3.org/2000/svg">
<rect width="393" height="57" fill="#4242B2"/>
<g clip-path="url(#clip0_2008_3306)">
<path d="M36.4432 26.2231C33.8451 26.2231 31.994 27.9995 31.994 30.4316V30.4482C31.994 32.7227 33.6044 34.3994 35.9037 34.3994C37.5472 34.3994 38.5931 33.561 39.0331 32.6147H39.1991C39.1991 32.7061 39.1908 32.7974 39.1908 32.8887C39.0995 35.1797 38.2943 37.0391 36.3934 37.0391C35.3392 37.0391 34.6005 36.4912 34.285 35.6528L34.2601 35.5698H32.1517L32.1683 35.6611C32.5502 37.4956 34.1937 38.7988 36.3934 38.7988C39.4066 38.7988 41.2245 36.4082 41.2245 32.374V32.3574C41.2245 28.041 38.9999 26.2231 36.4432 26.2231ZM36.4349 32.7559C35.0736 32.7559 34.0858 31.7598 34.0858 30.3735V30.3569C34.0858 29.0205 35.14 27.9663 36.4598 27.9663C37.788 27.9663 38.8256 29.0371 38.8256 30.4067V30.4233C38.8256 31.7764 37.788 32.7559 36.4349 32.7559ZM44.313 30.7388C45.0767 30.7388 45.6329 30.1577 45.6329 29.4272C45.6329 28.6885 45.0767 28.1157 44.313 28.1157C43.5577 28.1157 42.9932 28.6885 42.9932 29.4272C42.9932 30.1577 43.5577 30.7388 44.313 30.7388ZM44.313 36.8979C45.0767 36.8979 45.6329 36.3252 45.6329 35.5864C45.6329 34.8477 45.0767 34.2749 44.313 34.2749C43.5577 34.2749 42.9932 34.8477 42.9932 35.5864C42.9932 36.3252 43.5577 36.8979 44.313 36.8979ZM53.2121 38.5H55.2624V36.2007H56.8728V34.4326H55.2624V26.522H52.2327C50.6057 28.9956 48.904 31.7515 47.3518 34.4492V36.2007H53.2121V38.5ZM49.344 34.4824V34.3579C50.5061 32.3242 51.8923 30.1079 53.1208 28.2319H53.2453V34.4824H49.344ZM61.1567 38.5H63.2983V26.522H61.165L58.0356 28.7217V30.7388L61.0155 28.6304H61.1567V38.5Z" fill="white"/>
</g>
<g clip-path="url(#clip1_2008_3306)">
<rect x="301.652" y="25.5" width="3.2" height="12" rx="1" fill="white"/>
<rect x="296.353" y="27.9004" width="3.2" height="9.6" rx="1" fill="white"/>
<rect x="291.052" y="30.5" width="3.2" height="7" rx="1" fill="white"/>
<rect x="285.752" y="32.9004" width="3.2" height="4.6" rx="1" fill="white"/>
</g>
<path d="M319.311 33.6338C320.014 33.6338 320.698 33.8186 321.3 34.1711L321.544 34.3139C321.729 34.4222 321.762 34.6756 321.61 34.8268L319.527 36.9045C319.399 37.0322 319.191 37.0322 319.063 36.9045L316.993 34.8402C316.842 34.6896 316.873 34.4375 317.057 34.3284L317.298 34.185C317.906 33.8236 318.598 33.6338 319.311 33.6338Z" fill="white"/>
<path d="M319.311 29.8164C321.061 29.8164 322.741 30.3969 324.11 31.472L324.303 31.6239C324.457 31.745 324.471 31.9733 324.332 32.1117L323.088 33.3521C322.973 33.4668 322.791 33.48 322.661 33.3831L322.509 33.2704C321.585 32.5833 320.47 32.2148 319.311 32.2148C318.145 32.2148 317.023 32.5879 316.096 33.2828L315.944 33.3966C315.814 33.4943 315.631 33.4814 315.516 33.3664L314.272 32.1264C314.134 31.9883 314.147 31.7606 314.3 31.6393L314.493 31.4872C315.865 30.4026 317.553 29.8164 319.311 29.8164Z" fill="white"/>
<path d="M319.311 26C322.088 26 324.744 26.9796 326.846 28.7752L327.025 28.9285C327.17 29.0524 327.179 29.2731 327.044 29.4078L325.804 30.6441C325.684 30.7639 325.492 30.7723 325.362 30.6635L325.208 30.5351C323.553 29.1512 321.479 28.3984 319.311 28.3984C317.136 28.3984 315.055 29.1564 313.397 30.549L313.243 30.678C313.113 30.7873 312.921 30.7791 312.801 30.6591L311.561 29.4229C311.426 29.2885 311.434 29.0681 311.579 28.9441L311.758 28.7908C313.862 26.9855 316.526 26 319.311 26Z" fill="white"/>
<rect x="335.302" y="27" width="21" height="9" rx="1.33" fill="white"/>
<path opacity="0.4" d="M354.001 25.0059C355.138 25.0237 355.83 25.0957 356.391 25.3818C357.05 25.7174 357.585 26.2526 357.921 26.9111C358.302 27.6598 358.302 28.6397 358.302 30.5996V32.4004L358.297 33.6982C358.279 34.8358 358.207 35.5274 357.921 36.0889C357.585 36.7474 357.05 37.2826 356.391 37.6182C355.83 37.9043 355.138 37.9763 354.001 37.9941L352.703 38H338.902C337.065 38 336.089 37.9997 335.357 37.6855L335.214 37.6182C334.637 37.3246 334.155 36.8783 333.819 36.3301L333.684 36.0889C333.398 35.5274 333.326 34.8358 333.308 33.6982L333.302 32.4004V30.5996C333.302 28.7624 333.303 27.7864 333.617 27.0547L333.684 26.9111C333.978 26.3349 334.424 25.8529 334.972 25.5166L335.214 25.3818C335.962 25.0004 336.942 25 338.902 25H352.703L354.001 25.0059ZM338.902 26C337.906 26 337.219 26.0004 336.685 26.0439C336.164 26.0866 335.878 26.1656 335.668 26.2725C335.197 26.5121 334.815 26.8948 334.575 27.3652C334.468 27.5751 334.389 27.8612 334.346 28.3828C334.325 28.6494 334.314 28.9545 334.308 29.3174L334.302 30.5996V32.4004C334.302 33.3966 334.303 34.0838 334.346 34.6172C334.389 35.1388 334.468 35.4249 334.575 35.6348C334.815 36.1052 335.197 36.4879 335.668 36.7275C335.878 36.8344 336.164 36.9134 336.685 36.9561C337.219 36.9996 337.906 37 338.902 37H352.703C353.699 37 354.386 36.9996 354.92 36.9561C355.441 36.9134 355.727 36.8344 355.937 36.7275C356.408 36.4879 356.79 36.1052 357.03 35.6348C357.137 35.4249 357.216 35.1388 357.259 34.6172C357.302 34.0838 357.302 33.3966 357.302 32.4004V30.5996C357.302 29.6034 357.302 28.9162 357.259 28.3828C357.216 27.8612 357.137 27.5751 357.03 27.3652C356.79 26.8948 356.408 26.5121 355.937 26.2725C355.727 26.1656 355.441 26.0866 354.92 26.0439C354.653 26.0222 354.348 26.0115 353.985 26.0059L352.703 26H338.902ZM359.302 29.5C360.131 29.7 360.802 30.3954 360.802 31.5C360.802 32.6046 360.131 33.3 359.302 33.5V29.5Z" fill="white"/>
<defs>
<clipPath id="clip0_2008_3306">
<rect width="88.1204" height="44" fill="white" transform="translate(31.4398 6.5)"/>
</clipPath>
<clipPath id="clip1_2008_3306">
<rect width="20" height="14" fill="white" transform="translate(285.302 24.5)"/>
</clipPath>
</defs>
</svg>
