<svg width="96" height="36" viewBox="0 0 96 36" fill="none" xmlns="http://www.w3.org/2000/svg">
<path d="M44.8546 22.1719C44.8516 21.6259 44.8302 21.0799 44.7722 20.5399C44.3696 16.8336 42.9389 13.652 40.0349 11.2787C37.8721 9.50947 35.3494 8.60043 32.5887 8.34115C29.0258 8.00864 25.6336 8.55163 22.5923 10.5375C19.0416 12.8558 17.2052 16.2449 16.6988 20.3905C16.2748 23.8863 16.7385 27.251 18.7304 30.2191C21.5521 34.4195 25.6062 36.2803 30.6242 35.9326C33.7814 35.716 36.2492 34.2487 37.8294 31.4362C37.9819 31.1647 38.1253 30.8932 38.2778 30.6217V34.4379C38.2778 34.9961 38.7354 35.4445 39.2906 35.4384L43.8724 35.3774C44.4184 35.3713 44.8607 34.9259 44.8607 34.3768C44.8638 30.4295 44.8668 26.0338 44.8546 22.1719ZM33.5496 28.7548C29.1295 30.4387 23.7912 28.1203 23.8979 21.9432C23.9467 19.1947 25.0083 16.919 27.6012 15.6836C31.7224 13.7191 37.6189 15.6958 37.6525 22.1262C37.6525 25.2651 36.1577 27.7634 33.5496 28.7548Z" fill="white"/>
<path d="M72.6796 21.555C72.6582 20.0877 72.5057 18.5899 72.164 17.1654C71.2306 13.276 68.9183 10.5154 65.0961 9.12739C62.4025 8.14819 59.6236 8.03228 56.8324 8.46849C53.6904 8.95657 51.003 10.3232 49.0964 12.9588C47.3577 15.3625 46.7933 18.1049 46.7659 21.012C46.7293 24.7488 46.8665 31.7466 46.9306 34.3181C46.9428 34.8611 47.3882 35.2943 47.9312 35.2943H52.8668C53.4189 35.2943 53.8673 34.8458 53.8673 34.2937C53.8643 31.6215 53.8612 24.2699 53.9406 20.527C54.0107 17.1867 56.0942 15.1704 59.4161 14.969C61.8687 14.8196 63.9339 15.933 64.8002 18.0347C65.1663 18.9194 65.4134 19.9199 65.4286 20.8717C65.4896 24.5963 65.4927 31.6764 65.4896 34.2876C65.4896 34.8397 65.935 35.2851 66.4841 35.2882C67.8659 35.2973 70.349 35.3095 71.7217 35.3187C72.2616 35.3217 72.7009 34.8855 72.7009 34.3456C72.707 30.2061 72.7375 25.6121 72.6796 21.555Z" fill="white"/>
<path d="M19.8829 34.2872C17.891 32.5088 15.9844 30.1935 15.2706 27.5518C15.1516 27.1156 14.7581 26.8105 14.3067 26.8105H9.42593C8.8738 26.8105 8.42538 26.3621 8.42538 25.81V1.00055C8.42538 0.448418 7.97696 0 7.42483 0H1.00055C0.448418 0 0 0.448418 0 1.00055V26.8136V28.2717V34.3452C0 34.8973 0.448418 35.3457 1.00055 35.3457H19.4864C20.0415 35.3457 20.3008 34.6594 19.8829 34.2872Z" fill="white"/>
<path d="M81.4711 17.0397C81.6327 16.8567 81.7243 16.6188 81.7243 16.3747V1.461C81.7243 0.908867 81.2758 0.460449 80.7237 0.460449H75.5806C75.0285 0.460449 74.5801 0.908867 74.5801 1.461V34.2962C74.5801 34.8483 75.0285 35.2967 75.5806 35.2967H80.7237C81.2758 35.2967 81.7243 34.8483 81.7243 34.2962V27.1367C81.7243 26.8927 81.6358 26.6548 81.4711 26.4717L80.0557 24.8794C78.4847 23.0979 78.4847 20.4166 80.0587 18.6321L81.4711 17.0397Z" fill="white"/>
<path d="M89.6106 24.0497C88.4514 22.7411 88.4514 20.7735 89.6106 19.4618L95.1563 13.2541C97.0568 11.1005 95.5285 7.71143 92.658 7.71143C92.1791 7.71143 91.7215 7.91886 91.4043 8.27881L81.4628 19.4618C80.3067 20.7705 80.3067 22.738 81.4628 24.0497L91.4043 35.2327C91.7215 35.5927 92.1791 35.797 92.658 35.797C95.5315 35.797 97.0598 32.408 95.1563 30.2543L89.6106 24.0497Z" fill="#FFA900"/>
</svg>
